<?xml version="1.0" encoding="utf-8"?>
<!-- Generator: Adobe Illustrator 25.2.1, SVG Export Plug-In . SVG Version: 6.00 Build 0)  -->
<svg version="1.1" id="Ebene_1" xmlns="http://www.w3.org/2000/svg" xmlns:xlink="http://www.w3.org/1999/xlink" x="0px" y="0px"
     viewBox="0 0 279.9 289.9" style="enable-background:new 0 0 279.9 289.9;" xml:space="preserve">
<style type="text/css">
	.st0{fill:#320562;}
</style>
    <g>
	<path class="st0" d="M116.9,109.5L105,97.6l46.3-46.3c9.8-9.8,25.8-9.8,35.6,0l5.5,5.5l-11.9,11.9l-5.5-5.5
		c-3.2-3.2-8.5-3.2-11.7,0L116.9,109.5z"/>
        <path class="st0" d="M133.8,56.9l-11.9,11.9l-5.6-5.6c-3.2-3.2-8.5-3.2-11.7,0L99,68.8L87.1,56.8l5.5-5.5c9.8-9.8,25.8-9.8,35.6,0
		L133.8,56.9z"/>
        <path class="st0" d="M204,104l-5.6,5.6l-11.9-11.9L192,92c3.2-3.2,3.2-8.5,0-11.7l-5.5-5.5l11.9-11.9l5.5,5.5
		C213.8,78.2,213.8,94.2,204,104z"/>
        <path class="st0" d="M192.4,174.1l-5.5,5.5c-9.8,9.8-25.8,9.8-35.6,0l-5.6-5.6l11.9-11.9l5.6,5.6c3.2,3.2,8.5,3.2,11.7,0l5.5-5.5
		L192.4,174.1z"/>
        <path class="st0" d="M93,156.2l-11.9,11.9l-5.5-5.5c-9.8-9.8-9.8-25.8,0-35.6l5.6-5.6l11.9,11.9l-5.6,5.6c-3.2,3.2-3.2,8.5,0,11.7
		L93,156.2z"/>
        <g>
		<path class="st0" d="M145.7,92.7l11.9-11.9l46.3,46.3c9.8,9.8,9.8,25.8,0,35.6l-5.5,5.5l-11.9-11.9l5.5-5.5
			c3.2-3.2,3.2-8.5,0-11.7L145.7,92.7z"/>
	</g>
        <path class="st0" d="M162.6,121.5l11.9,11.9l-46.3,46.3c-9.8,9.8-25.8,9.8-35.6,0l-5.5-5.5L99,162.2l5.5,5.5
		c3.2,3.2,8.5,3.2,11.7,0L162.6,121.5z"/>
        <path class="st0" d="M133.8,138.3l-11.9,11.9L75.6,104c-9.8-9.8-9.8-25.8,0-35.6l5.5-5.5l11.9,11.9l-5.5,5.5
		c-3.2,3.2-3.2,8.5,0,11.7L133.8,138.3z"/>
</g>
    <path class="st0" d="M83.3,232.3c-0.9,0-1.6-0.7-1.6-1.6l0-8.8c0-2.2-0.8-3.9-2.2-5c-1.4-1.2-3.3-1.8-5.7-1.8c-1.6,0-3,0.3-4.3,0.8
	c-1.3,0.6-2.3,1.3-3,2.3c-0.7,1-1.1,2-1.1,3.1h4.6c0-0.8,0.3-1.5,1-2c0.7-0.5,1.5-0.8,2.6-0.8c1.2,0,2.1,0.3,2.7,0.9
	c0.6,0.6,0.9,1.5,0.9,2.5v1.3h-2.8c-3,0-5.3,0.6-6.9,1.7c-1.6,1.2-2.4,2.8-2.4,5c0,1.5,0.6,3.2,1.9,4.3c1.3,1.2,3,1.7,5,1.7
	c2.1,0,4.7-1.2,6.2-2.8l0.2-0.1c0.9,1.8,2.8,3,5,3h0.6v-4.1H83.3z M77.2,230.2c-0.4,0.7-1,1.3-1.8,1.8c-0.8,0.4-1.6,0.7-2.5,0.7
	c-1,0-1.8-0.3-2.3-0.8c-0.6-0.5-0.9-1.2-0.9-2.1c0-1.1,0.4-1.9,1.3-2.5c0.9-0.6,2.1-0.9,3.8-0.9h2.5V230.2z"/>
    <path class="st0" d="M86.9,225.4c0-3.2,0.7-5.7,2.2-7.6c1.5-1.9,3.5-2.8,5.9-2.8c2.3,0,4.1,0.8,5.5,2.4l0.2-2h4.1v19.7
	c0,2.7-0.8,4.8-2.5,6.3c-1.7,1.5-3.9,2.3-6.7,2.3c-1.5,0-2.9-0.3-4.4-0.9c-1.4-0.6-2.5-1.4-3.2-2.4l2.2-2.7c1.4,1.7,3.1,2.5,5.2,2.5
	c1.5,0,2.7-0.4,3.6-1.2c0.9-0.8,1.3-2,1.3-3.6v-1.4c-1.3,1.5-3.1,2.2-5.3,2.2c-2.4,0-4.3-0.9-5.8-2.8
	C87.7,231.4,86.9,228.8,86.9,225.4z M91.5,225.8c0,2,0.4,3.7,1.3,4.8c0.8,1.2,2,1.8,3.5,1.8c1.8,0,3.2-0.8,4.1-2.4v-9
	c-0.9-1.5-2.2-2.3-4.1-2.3c-1.5,0-2.7,0.6-3.5,1.8C91.9,221.8,91.5,223.5,91.5,225.8z"/>
    <path class="st0" d="M118.5,236.1c-2.9,0-5.2-0.9-7-2.7c-1.8-1.8-2.7-4.3-2.7-7.3v-0.6c0-2,0.4-3.8,1.2-5.4c0.8-1.6,1.9-2.8,3.3-3.7
	c1.4-0.9,3-1.3,4.7-1.3c2.8,0,4.9,0.9,6.4,2.7c1.5,1.8,2.3,4.3,2.3,7.5v1.8h-13.3c0.1,1.7,0.7,3,1.7,4c1,1,2.2,1.5,3.7,1.5
	c2.1,0,3.8-0.8,5.1-2.5l2.5,2.4c-0.8,1.2-1.9,2.2-3.3,2.8C121.7,235.8,120.2,236.1,118.5,236.1z M118,218.7c-1.3,0-2.3,0.4-3,1.3
	c-0.8,0.9-1.3,2.1-1.5,3.7h8.7v-0.3c-0.1-1.5-0.5-2.7-1.2-3.5S119.2,218.7,118,218.7z"/>
    <path class="st0" d="M129.8,225.4c0-3.1,0.7-5.7,2.2-7.6c1.5-1.9,3.4-2.8,5.8-2.8c2.2,0,3.9,0.8,5.2,2.3v-10.4h4.6V236h-4.1
	l-0.2-2.3c-1.4,1.7-3.2,2.5-5.5,2.5c-2.4,0-4.3-1-5.8-2.9C130.5,231.3,129.8,228.7,129.8,225.4z M134.4,225.8c0,2.1,0.4,3.7,1.2,4.8
	c0.8,1.2,1.9,1.7,3.4,1.7c1.9,0,3.2-0.8,4.1-2.5v-8.7c-0.8-1.6-2.2-2.4-4.1-2.4c-1.5,0-2.6,0.6-3.4,1.8
	C134.8,221.7,134.4,223.5,134.4,225.8z"/>
    <path class="st0" d="M181.8,232.5c1.1,0,2.1-0.3,2.8-1c0.8-0.7,1.2-1.5,1.2-2.5h4.3c-0.1,1.3-0.4,2.4-1.2,3.5c-0.7,1.1-1.7,2-3,2.6
	c-1.3,0.6-2.6,1-4.1,1c-2.8,0-5.1-0.9-6.8-2.8c-1.7-1.8-2.5-4.4-2.5-7.6v-0.5c0-3.1,0.8-5.6,2.5-7.4c1.7-1.9,3.9-2.8,6.8-2.8
	c2.4,0,4.4,0.7,5.9,2.1c1.5,1.4,2.3,3.3,2.4,5.6h-4.3c-0.1-1.2-0.4-2.1-1.2-2.9c-0.7-0.8-1.7-1.1-2.8-1.1c-1.5,0-2.6,0.5-3.4,1.6
	c-0.8,1.1-1.2,2.7-1.2,4.9v0.7c0,2.2,0.4,3.9,1.2,4.9C179.1,231.9,180.3,232.5,181.8,232.5z"/>
    <path class="st0" d="M199.3,210.5v4.9h3.6v3.4h-3.6v11.4c0,0.8,0.2,1.3,0.5,1.7c0.3,0.3,0.9,0.5,1.6,0.5c0.5,0,1.1-0.1,1.6-0.2v3.5
	c-1,0.3-2,0.4-3,0.4c-3.5,0-5.3-1.9-5.3-5.8v-11.5h-3.3v-3.4h3.3v-4.9H199.3z"/>
    <path class="st0" d="M217.8,215.4h-5.5c-3.4,0-6.1,2.7-6.1,6.1v8.5c0,3.3,2.7,6.1,6.1,6.1h1.8v-4.2h-1.8c-1.1,0-1.9-0.8-1.9-1.9
	v-8.5c0-1,0.9-1.9,1.9-1.9h5.5c1.1,0,1.9,0.8,1.9,1.9v8.5c0,1-0.9,1.9-1.9,1.9h-1.6v4.2h1.6c3.4,0,6.1-2.7,6.1-6.1v-8.5
	C223.9,218.1,221.2,215.4,217.8,215.4z"/>
    <path class="st0" d="M157.5,236h5.5c3.4,0,6.1-2.7,6.1-6.1v-8.5c0-3.3-2.7-6.1-6.1-6.1h-1.8v4.2h1.8c1.1,0,1.9,0.8,1.9,1.9v8.5
	c0,1-0.9,1.9-1.9,1.9h-5.5c-1.1,0-1.9-0.8-1.9-1.9v-8.5c0-1,0.9-1.9,1.9-1.9h1.6v-4.2h-1.6c-3.4,0-6.1,2.7-6.1,6.1v8.5
	C151.4,233.3,154.1,236,157.5,236z"/>
    <path class="st0" d="M232.6,235.9H228v-13.6c0-3.8,3.1-6.9,6.9-6.9h2.2v4.6h-2.2c-1.3,0-2.3,1-2.3,2.3V235.9z"/>
    <path class="st0" d="M48,246.9h-4.3v-7.7c0-4.3,3.5-7.7,7.7-7.7h1.7c1.9,0,3.4-1.5,3.4-3.4V223c0-1.9-1.5-3.4-3.4-3.4H48v11.1h-4.3
	v-15.4h9.4c4.3,0,7.7,3.5,7.7,7.7v5.1c0,4.3-3.5,7.7-7.7,7.7h-1.7c-1.9,0-3.4,1.5-3.4,3.4V246.9z"/>
</svg>
