<?xml version="1.0" encoding="utf-8"?>
<!-- Generator: Adobe Illustrator 25.2.1, SVG Export Plug-In . SVG Version: 6.00 Build 0)  -->
<svg version="1.1" id="Ebene_1" xmlns="http://www.w3.org/2000/svg" xmlns:xlink="http://www.w3.org/1999/xlink" x="0px" y="0px"
     viewBox="0 0 708.9 253" style="enable-background:new 0 0 708.9 253;" xml:space="preserve">
<style type="text/css">
	.st0{fill:#4ECCA3;}
</style>
    <g>
	<path class="st0" d="M112.9,123l-7.1-7.1l27.4-27.4c5.8-5.8,15.3-5.8,21.1,0l3.3,3.3l-7.1,7.1l-3.3-3.3c-1.9-1.9-5-1.9-7,0
		L112.9,123z"/>
        <path class="st0" d="M122.9,91.8l-7.1,7.1l-3.3-3.3c-1.9-1.9-5-1.9-7,0l-3.3,3.3l-7.1-7.1l3.3-3.3c5.8-5.8,15.3-5.8,21.1,0
		L122.9,91.8z"/>
        <path class="st0" d="M164.4,119.7l-3.3,3.3l-7.1-7.1l3.3-3.3c1.9-1.9,1.9-5,0-7l-3.3-3.3l7.1-7.1l3.3,3.3
		C170.2,104.4,170.2,113.9,164.4,119.7z"/>
        <path class="st0" d="M157.6,161.2l-3.3,3.3c-5.8,5.8-15.3,5.8-21.1,0l-3.3-3.3l7.1-7.1l3.3,3.3c1.9,1.9,5,1.9,7,0l3.3-3.3
		L157.6,161.2z"/>
        <path class="st0" d="M98.7,150.7l-7.1,7.1l-3.3-3.3c-5.8-5.8-5.8-15.3,0-21.1l3.3-3.3l7.1,7.1l-3.3,3.3c-1.9,1.9-1.9,5,0,7
		L98.7,150.7z"/>
        <g>
		<path class="st0" d="M129.9,113l7.1-7.1l27.4,27.4c5.8,5.8,5.8,15.3,0,21.1l-3.3,3.3l-7.1-7.1l3.3-3.3c1.9-1.9,1.9-5,0-7
			L129.9,113z"/>
	</g>
        <path class="st0" d="M139.9,130l7.1,7.1l-27.4,27.4c-5.8,5.8-15.3,5.8-21.1,0l-3.3-3.3l7.1-7.1l3.3,3.3c1.9,1.9,5,1.9,7,0
		L139.9,130z"/>
        <path class="st0" d="M122.8,140l-7.1,7.1l-27.4-27.4c-5.8-5.8-5.8-15.3,0-21.1l3.3-3.3l7.1,7.1l-3.3,3.3c-1.9,1.9-1.9,5,0,7
		L122.8,140z"/>
</g>
    <path class="st0" d="M287.8,135.2c-1.9,0-3.4-1.5-3.4-3.4l0-19.4c-0.1-4.8-1.7-8.5-4.8-11.1c-3.1-2.6-7.3-4-12.6-4
	c-3.5,0-6.6,0.6-9.4,1.8c-2.8,1.2-5,2.9-6.7,5c-1.6,2.1-2.4,4.4-2.4,6.9h10.1c0-1.8,0.7-3.2,2.2-4.4c1.5-1.1,3.3-1.7,5.6-1.7
	c2.7,0,4.6,0.7,5.9,2.1c1.3,1.4,2,3.3,2,5.6v2.9H268c-6.6,0-11.7,1.3-15.3,3.8s-5.3,6.2-5.3,11c0,3.3,1.4,7,4.3,9.5
	c2.8,2.6,6.5,3.9,11,3.9c4.6,0,10.4-2.7,13.6-6.1l0.3-0.2c2.1,4,6.2,6.7,11,6.7h1.2v-9H287.8z M274.2,130.4c-0.9,1.6-2.2,2.9-4,3.9
	c-1.8,1-3.6,1.5-5.6,1.5c-2.2,0-3.9-0.6-5.2-1.7c-1.3-1.1-1.9-2.7-1.9-4.6c0-2.4,0.9-4.2,2.8-5.5s4.7-2,8.4-2h5.4V130.4z"/>
    <path class="st0" d="M295.7,120c0-7,1.6-12.5,4.9-16.7c3.3-4.2,7.6-6.2,13.1-6.2c5.1,0,9.1,1.8,12.1,5.4l0.5-4.5h9.1v43.5
	c0,5.9-1.8,10.5-5.5,13.9c-3.7,3.4-8.6,5.1-14.8,5.1c-3.3,0-6.5-0.7-9.6-2.1c-3.1-1.4-5.5-3.2-7.2-5.4l4.8-6.1
	c3.1,3.7,6.9,5.5,11.5,5.5c3.3,0,6-0.9,7.9-2.7c1.9-1.8,2.9-4.5,2.9-8v-3c-2.9,3.2-6.8,4.9-11.6,4.9c-5.3,0-9.6-2.1-12.9-6.3
	C297.3,133.2,295.7,127.4,295.7,120z M305.7,120.9c0,4.5,0.9,8.1,2.8,10.6c1.8,2.6,4.4,3.9,7.7,3.9c4.1,0,7.1-1.7,9-5.2v-19.8
	c-1.9-3.4-4.9-5.1-9-5.1c-3.3,0-5.9,1.3-7.7,3.9C306.6,111.9,305.7,115.8,305.7,120.9z"/>
    <path class="st0" d="M365.4,143.6c-6.4,0-11.6-2-15.5-6c-4-4-6-9.4-6-16.1v-1.2c0-4.5,0.9-8.5,2.6-12c1.7-3.5,4.2-6.3,7.3-8.2
	c3.1-2,6.6-2.9,10.5-2.9c6.1,0,10.8,2,14.2,5.9c3.3,3.9,5,9.4,5,16.6v4.1h-29.3c0.3,3.7,1.5,6.6,3.7,8.8c2.2,2.2,4.9,3.2,8.2,3.2
	c4.6,0,8.4-1.9,11.3-5.6l5.4,5.2c-1.8,2.7-4.2,4.8-7.2,6.2C372.5,142.9,369.1,143.6,365.4,143.6z M364.2,105.1c-2.8,0-5,1-6.7,2.9
	c-1.7,1.9-2.8,4.6-3.3,8.1h19.2v-0.7c-0.2-3.4-1.1-5.9-2.7-7.7S367,105.1,364.2,105.1z"/>
    <path class="st0" d="M390.4,120c0-6.9,1.6-12.5,4.8-16.7c3.2-4.2,7.5-6.3,12.9-6.3c4.8,0,8.6,1.7,11.5,5V79h10.1v64.2h-9.1l-0.5-5.1
	c-3,3.7-7,5.5-12.1,5.5c-5.3,0-9.5-2.1-12.8-6.3C392,133,390.4,127.3,390.4,120z M400.4,120.9c0,4.6,0.9,8.1,2.6,10.7
	c1.8,2.6,4.3,3.8,7.5,3.8c4.1,0,7.1-1.8,9-5.5v-19.2c-1.9-3.6-4.8-5.4-9-5.4c-3.3,0-5.8,1.3-7.6,3.9
	C401.3,111.8,400.4,115.7,400.4,120.9z"/>
    <path class="st0" d="M505.1,135.6c2.5,0,4.6-0.7,6.3-2.2c1.7-1.5,2.5-3.3,2.7-5.4h9.5c-0.1,2.8-1,5.4-2.6,7.8
	c-1.6,2.4-3.8,4.3-6.6,5.7c-2.8,1.4-5.8,2.1-9,2.1c-6.3,0-11.3-2-14.9-6.1c-3.7-4.1-5.5-9.7-5.5-16.8v-1c0-6.8,1.8-12.3,5.5-16.4
	c3.7-4.1,8.6-6.2,14.9-6.2c5.3,0,9.7,1.6,13.1,4.7c3.4,3.1,5.1,7.2,5.3,12.3H514c-0.1-2.6-1-4.7-2.6-6.4c-1.6-1.7-3.7-2.5-6.3-2.5
	c-3.3,0-5.8,1.2-7.6,3.5c-1.8,2.4-2.7,6-2.7,10.8v1.6c0,4.9,0.9,8.5,2.6,10.9C499.2,134.4,501.7,135.6,505.1,135.6z"/>
    <path class="st0" d="M543.7,87v10.9h7.9v7.5h-7.9v25.1c0,1.7,0.3,3,1,3.7c0.7,0.8,1.9,1.1,3.6,1.1c1.2,0,2.3-0.1,3.5-0.4v7.8
	c-2.3,0.6-4.5,1-6.6,1c-7.7,0-11.6-4.3-11.6-12.8v-25.4h-7.4v-7.5h7.4V87H543.7z"/>
    <path class="st0" d="M584.6,97.8h-12.2c-7.4,0-13.5,6-13.5,13.4v18.7c0,7.4,6.1,13.4,13.5,13.4h4v-9.2h-4c-2.3,0-4.2-1.9-4.2-4.2
	v-18.7c0-2.3,1.9-4.2,4.2-4.2h12.2c2.3,0,4.2,1.9,4.2,4.2v18.7c0,2.3-1.9,4.2-4.2,4.2h-3.5v9.2h3.5c7.4,0,13.5-6,13.5-13.4v-18.7
	C598.1,103.8,592.1,97.8,584.6,97.8z"/>
    <path class="st0" d="M451.5,143.3h12.2c7.4,0,13.5-6,13.5-13.4v-18.7c0-7.4-6.1-13.4-13.5-13.4h-4v9.2h4c2.3,0,4.2,1.9,4.2,4.2v18.7
	c0,2.3-1.9,4.2-4.2,4.2h-12.2c-2.3,0-4.2-1.9-4.2-4.2v-18.7c0-2.3,1.9-4.2,4.2-4.2h3.5v-9.2h-3.5c-7.4,0-13.5,6-13.5,13.4v18.7
	C438,137.3,444.1,143.3,451.5,143.3z"/>
    <path class="st0" d="M617.3,143.2h-10.3v-30c0-8.4,6.9-15.3,15.3-15.3h4.8v10.3h-4.8c-2.8,0-5,2.3-5,5V143.2z"/>
    <path class="st0" d="M209.7,167.5h-9.5v-16.9c0-9.4,7.6-17,17-17h3.7c4.1,0,7.5-3.4,7.5-7.5v-11.3c0-4.1-3.4-7.5-7.5-7.5h-11.2v24.6
	h-9.5V97.7H221c9.4,0,17,7.6,17,17V126c0,9.4-7.6,17-17,17h-3.7c-4.1,0-7.5,3.4-7.5,7.5V167.5z"/>
</svg>
